 <svg version="1.0" xmlns="http://www.w3.org/2000/svg" width="700.000000pt" height="317.000000pt" viewBox="0 0 700.000000 317.000000" preserveAspectRatio="xMidYMid meet">
<metadata>
Created by potrace 1.12, written by Peter Selinger 2001-2015
</metadata>
<g transform="translate(0.000000,317.000000) scale(0.100000,-0.100000)" fill="#000000" stroke="none">
<path d="M380 2903 c-17 -38 -100 -221 -184 -408 -84 -187 -151 -343 -149
-347 2 -5 197 -8 432 -8 l429 0 6 -472 c4 -260 8 -689 9 -954 2 -391 5 -484
16 -497 12 -16 207 -17 2597 -17 2334 0 2584 2 2598 16 14 13 16 52 16 273 l0
258 143 7 c239 11 430 50 485 99 l22 21 -2 545 -3 545 -32 22 c-163 110 -1006
125 -1280 22 -91 -34 -93 -38 -93 -183 l0 -125 -564 0 c-310 0 -571 -3 -580
-6 -13 -5 -16 9 -18 93 l-3 98 -264 3 -263 2 27 28 c53 52 70 137 41 205 -15
38 -76 94 -111 103 l-25 6 0 167 c0 129 -3 172 -14 187 -14 19 -38 19 -950 24
l-935 5 65 145 c36 80 72 160 79 178 l14 32 -740 0 -739 0 -30 -67z m1476 25
c-52 -122 -339 -754 -345 -761 -4 -4 -332 -6 -729 -5 l-721 3 165 365 c91 201
171 380 179 398 l14 32 726 0 725 0 -14 -32z m1664 -571 l0 -144 -26 -13 c-74
-40 -101 -174 -50 -250 15 -23 35 -44 44 -48 9 -4 -98 -9 -238 -12 l-255 -5
-3 -252 -2 -253 620 0 620 0 0 115 c0 111 1 115 19 105 13 -6 213 -10 580 -10
l561 0 0 -358 c0 -397 -5 -370 66 -406 66 -33 250 -63 447 -72 l137 -7 0 -219
0 -218 -2505 0 -2505 0 0 253 c0 140 -3 551 -7 915 l-6 662 246 0 c245 0 247
0 261 23 8 12 45 90 81 172 37 83 69 153 72 158 2 4 418 7 924 7 l919 0 0
-143z m160 -160 c30 -16 51 -37 67 -67 40 -76 26 -149 -41 -208 -34 -29 -42
-32 -104 -32 -82 0 -122 21 -153 81 -16 33 -20 55 -17 95 11 125 135 191 248
131z m2800 -153 c167 -22 280 -54 302 -87 12 -19 -10 -44 -59 -65 -184 -79
-780 -98 -1123 -36 -208 37 -249 103 -94 149 206 61 661 79 974 39z m-975
-178 c263 -83 933 -80 1192 5 35 11 65 25 68 30 4 5 10 9 16 9 11 0 12 -1019
1 -1036 -73 -111 -886 -149 -1248 -58 -34 9 -76 24 -93 35 l-31 19 0 520 0
520 23 -14 c12 -7 45 -21 72 -30z m-1285 -236 l0 -240 -610 0 -610 0 0 240 0
240 610 0 610 0 0 -240z"></path>
<path d="M761 2548 c1 -29 4 -43 6 -30 3 13 12 22 22 22 24 0 45 25 37 45 -3
9 -18 15 -36 15 -30 0 -30 0 -29 -52z m54 33 c7 -12 -29 -33 -39 -24 -3 3 -6
12 -6 20 0 15 36 18 45 4z"></path>
<path d="M846 2557 c-18 -48 -21 -71 -5 -44 5 9 19 17 29 17 10 0 24 -8 29
-17 15 -26 13 -13 -5 40 -9 26 -19 47 -24 47 -4 0 -15 -19 -24 -43z m34 -2 c0
-8 -4 -15 -10 -15 -5 0 -10 7 -10 15 0 8 5 15 10 15 6 0 10 -7 10 -15z"></path>
<path d="M931 2548 c2 -52 2 -52 8 -13 6 39 7 39 19 17 8 -13 16 -22 18 -19 6
6 -29 67 -38 67 -5 0 -7 -24 -7 -52z"></path>
<path d="M988 2558 c-3 -24 -1 -47 3 -52 5 -6 9 13 9 42 0 63 -6 68 -12 10z"></path>
<path d="M1032 2553 l-2 -53 33 1 c29 2 29 2 5 6 -24 4 -27 9 -31 51 l-3 47
-2 -52z"></path>
<path d="M1100 2550 l0 -50 38 1 c36 1 36 2 7 8 -17 3 -30 13 -30 21 0 8 13
18 30 21 l30 7 -33 1 c-41 1 -39 23 4 32 27 6 27 7 -8 8 l-38 1 0 -50z"></path>
<path d="M5822 1414 c4 -3 14 -7 25 -8 15 -2 18 -14 21 -69 4 -87 20 -86 24 0
3 62 5 68 28 74 17 5 3 7 -39 8 -35 1 -62 -2 -59 -5z"></path>
<path d="M5956 1350 c-15 -38 -26 -76 -23 -82 3 -8 9 -1 16 15 8 22 17 27 44
27 27 0 36 -6 47 -27 7 -16 15 -23 17 -15 7 18 -48 152 -62 152 -7 0 -24 -31
-39 -70z m64 -12 c0 -5 -11 -8 -25 -8 -29 0 -29 -1 -14 37 l11 28 13 -25 c8
-14 14 -28 15 -32z"></path>
<path d="M6080 1345 c0 -88 18 -102 22 -18 l3 58 33 -52 c57 -89 62 -88 60 8
-1 69 -2 74 -5 27 -2 -32 -7 -58 -11 -58 -4 0 -23 25 -42 55 -48 76 -60 72
-60 -20z"></path>
<path d="M6240 1346 c0 -41 5 -78 10 -81 6 -4 10 6 10 23 0 38 28 64 41 39 19
-33 57 -72 64 -65 4 4 -7 25 -24 46 -17 22 -31 43 -31 48 0 4 12 21 27 36 41
43 6 35 -39 -9 l-38 -37 0 37 c0 20 -4 37 -10 37 -6 0 -10 -31 -10 -74z"></path>
<path d="M3420 1631 c0 -28 5 -51 10 -51 6 0 10 9 10 19 0 13 8 21 23 23 16 2
22 10 22 28 0 21 -5 26 -32 28 l-33 3 0 -50z m55 19 c0 -8 -8 -16 -17 -18 -13
-2 -18 3 -18 18 0 15 5 20 18 18 9 -2 17 -10 17 -18z"></path>
<path d="M3511 1648 c-2 -53 7 -68 39 -68 32 0 41 15 39 68 -1 26 -3 29 -6 12
-9 -60 -14 -70 -33 -70 -19 0 -24 10 -33 70 -3 17 -5 14 -6 -12z"></path>
<path d="M3611 1628 c2 -48 2 -50 8 -18 l7 35 16 -35 16 -35 15 35 15 35 5
-35 c3 -27 4 -23 5 18 2 56 -12 70 -23 22 -10 -43 -22 -45 -35 -5 -17 51 -30
43 -29 -17z"></path>
<path d="M3731 1628 c1 -29 4 -43 6 -31 3 15 13 23 31 25 21 2 27 8 27 28 0
21 -5 26 -32 28 l-33 3 1 -53z m54 22 c0 -8 -10 -16 -22 -18 -18 -3 -23 2 -23
18 0 16 5 21 23 18 12 -2 22 -10 22 -18z"></path>
</g>
</svg>